<?xml version="1.0" encoding="utf-8"?>
<svg xmlns="http://www.w3.org/2000/svg" xmlns:xlink="http://www.w3.org/1999/xlink" style="margin: auto; background: none; display: block; z-index: 1; position: relative; shape-rendering: auto;" width="981" height="450" preserveAspectRatio="xMidYMid" viewBox="0 0 981 450">
<g transform="translate(490.5,225) scale(1,1) translate(-490.5,-225)"><path d="M-100 268.09C-80.51 270.01 -80.87 266.02 -61.9 266.02S-41.97 271.23 -23.81 271.23S-3.7 266.47 14.29 266.47S33.6 269.29 52.39 269.29S72.2 266.87 90.48 266.87S110.36 263.11 128.58 263.11S147.94 262.33 166.68 262.33S186.15 265.28 204.77 265.28S223.84 267.7 242.87 267.7S262.79 266.59 280.97 266.59S300.8 261.96 319.06 261.96S339.23 261.71 357.16 261.71S376.97 261.72 395.26 261.72S415.42 266.15 433.35 266.15S452.89 271.19 471.45 271.19S491.53 265.74 509.55 265.74S529.29 271.31 547.65 271.31S566.84 261.43 585.74 261.43S605.29 272 623.84 272S643.92 268.07 661.94 268.07S681.17 265.3 700.03 265.3S719.09 268.23 738.13 268.23S757.69 263.49 776.23 263.49S795.75 272.12 814.32 272.12S833.42 268.48 852.42 268.48S871.91 266.76 890.52 266.76S910.28 264.33 928.61 264.33S948.44 267.97 966.71 267.97S986.25 264.01 1004.81 264.01S1024.96 268.99 1042.9 268.99S1062.31 264.61 1081 264.61S1101.05 266.89 1119.1 266.89L1081 450 L-100 450 Z" fill="#93dbe9" stroke-width="0">
  <animate attributeName="d" dur="10.416666666666666s" repeatCount="indefinite" values="M-100 268.09C-80.51 270.01 -80.87 266.02 -61.9 266.02S-41.97 271.23 -23.81 271.23S-3.7 266.47 14.29 266.47S33.6 269.29 52.39 269.29S72.2 266.87 90.48 266.87S110.36 263.11 128.58 263.11S147.94 262.33 166.68 262.33S186.15 265.28 204.77 265.28S223.84 267.7 242.87 267.7S262.79 266.59 280.97 266.59S300.8 261.96 319.06 261.96S339.23 261.71 357.16 261.71S376.97 261.72 395.26 261.72S415.42 266.15 433.35 266.15S452.89 271.19 471.45 271.19S491.53 265.74 509.55 265.74S529.29 271.31 547.65 271.31S566.84 261.43 585.74 261.43S605.29 272 623.84 272S643.92 268.07 661.94 268.07S681.17 265.3 700.03 265.3S719.09 268.23 738.13 268.23S757.69 263.49 776.23 263.49S795.75 272.12 814.32 272.12S833.42 268.48 852.42 268.48S871.91 266.76 890.52 266.76S910.28 264.33 928.61 264.33S948.44 267.97 966.71 267.97S986.25 264.01 1004.81 264.01S1024.96 268.99 1042.9 268.99S1062.31 264.61 1081 264.61S1101.05 266.89 1119.1 266.89L1081 450 L-100 450 Z;M-100 266.31C-80.35 272.23 -80.77 261.48 -61.9 261.48S-42.18 269.22 -23.81 269.22S-3.68 271.01 14.29 271.01S33.97 269.92 52.39 269.92S72.52 271.83 90.48 271.83S110.25 264.08 128.58 264.08S148.16 271.97 166.68 271.97S185.79 266.17 204.77 266.17S224.48 267.32 242.87 267.32S262.77 270.24 280.97 270.24S300.03 268.32 319.06 268.32S338.11 270.54 357.16 270.54S376.25 267.41 395.26 267.41S414.95 263.9 433.35 263.9S452.42 263.07 471.45 263.07S490.67 266.75 509.55 266.75S529.67 263.98 547.65 263.98S567.67 269.01 585.74 269.01S605.85 268.23 623.84 268.23S643.16 268.05 661.94 268.05S681 264.28 700.03 264.28S719.11 262.03 738.13 262.03S757.33 263.24 776.23 263.24S795.77 269.2 814.32 269.2S833.66 265.21 852.42 265.21S871.9 263.26 890.52 263.26S909.89 263.42 928.61 263.42S947.91 266.04 966.71 266.04S985.89 268.61 1004.81 268.61S1024.28 269 1042.9 269S1062.13 264.96 1081 264.96S1100.84 261.05 1119.1 261.05L1081 450 L-100 450 Z;M-100 268.09C-80.51 270.01 -80.87 266.02 -61.9 266.02S-41.97 271.23 -23.81 271.23S-3.7 266.47 14.29 266.47S33.6 269.29 52.39 269.29S72.2 266.87 90.48 266.87S110.36 263.11 128.58 263.11S147.94 262.33 166.68 262.33S186.15 265.28 204.77 265.28S223.84 267.7 242.87 267.7S262.79 266.59 280.97 266.59S300.8 261.96 319.06 261.96S339.23 261.71 357.16 261.71S376.97 261.72 395.26 261.72S415.42 266.15 433.35 266.15S452.89 271.19 471.45 271.19S491.53 265.74 509.55 265.74S529.29 271.31 547.65 271.31S566.84 261.43 585.74 261.43S605.29 272 623.84 272S643.92 268.07 661.94 268.07S681.17 265.3 700.03 265.3S719.09 268.23 738.13 268.23S757.69 263.49 776.23 263.49S795.75 272.12 814.32 272.12S833.42 268.48 852.42 268.48S871.91 266.76 890.52 266.76S910.28 264.33 928.61 264.33S948.44 267.97 966.71 267.97S986.25 264.01 1004.81 264.01S1024.96 268.99 1042.9 268.99S1062.31 264.61 1081 264.61S1101.05 266.89 1119.1 266.89L1081 450 L-100 450 Z"></animate>
  <animateTransform attributeName="transform" type="translate" dur="10.416666666666666s" begin="0s" repeatCount="indefinite" values="0;10;0" calcMode="spline" keySplines="0.3 0 0.7 1;0.3 0 0.7 1"></animateTransform>
</path><path d="M-100 282.1C-80.08 281.94 -79.92 282.29 -60.89 282.29S-41.03 274.37 -21.79 274.37S-1.28 279.89 17.32 279.89S37.09 275.26 56.42 275.26S77 276.73 95.53 276.73S116.2 283.11 134.64 283.11S154.5 281.25 173.74 281.25S193.65 280.87 212.85 280.87S233.17 284.44 251.95 284.44S271.92 277.06 291.06 277.06S311.71 278.73 330.17 278.73S350.71 278.19 369.27 278.19S389.38 282.1 408.38 282.1S427.94 276.98 447.48 276.98S467.56 279.32 486.59 279.32S507.22 275.94 525.7 275.94S546.22 274.7 564.8 274.7S585.01 276.06 603.91 276.06S624.19 279.61 643.01 279.61S663.65 279.88 682.12 279.88S702.12 285.57 721.23 285.57S741.18 282.43 760.33 282.43S780.57 284.81 799.44 284.81S819.77 280.36 838.54 280.36S858.53 282.38 877.65 282.38S897.91 277.47 916.75 277.47S937.33 277.93 955.86 277.93S975.7 278.68 994.97 278.68S1015.45 280.79 1034.07 280.79S1054.02 276.82 1073.18 276.82S1093.07 277.19 1112.28 277.19L1081 450 L-100 450 Z" fill="#8dd5e6" stroke-width="0">
  <animate attributeName="d" dur="9.375s" repeatCount="indefinite" values="M-100 282.1C-80.08 281.94 -79.92 282.29 -60.89 282.29S-41.03 274.37 -21.79 274.37S-1.28 279.89 17.32 279.89S37.09 275.26 56.42 275.26S77 276.73 95.53 276.73S116.2 283.11 134.64 283.11S154.5 281.25 173.74 281.25S193.65 280.87 212.85 280.87S233.17 284.44 251.95 284.44S271.92 277.06 291.06 277.06S311.71 278.73 330.17 278.73S350.71 278.19 369.27 278.19S389.38 282.1 408.38 282.1S427.94 276.98 447.48 276.98S467.56 279.32 486.59 279.32S507.22 275.94 525.7 275.94S546.22 274.7 564.8 274.7S585.01 276.06 603.91 276.06S624.19 279.61 643.01 279.61S663.65 279.88 682.12 279.88S702.12 285.57 721.23 285.57S741.18 282.43 760.33 282.43S780.57 284.81 799.44 284.81S819.77 280.36 838.54 280.36S858.53 282.38 877.65 282.38S897.91 277.47 916.75 277.47S937.33 277.93 955.86 277.93S975.7 278.68 994.97 278.68S1015.45 280.79 1034.07 280.79S1054.02 276.82 1073.18 276.82S1093.07 277.19 1112.28 277.19L1081 450 L-100 450 Z;M-100 278.37C-79.42 272.83 -79.5 283.45 -60.89 283.45S-40.51 280.54 -21.79 280.54S-1.81 275.16 17.32 275.16S37.78 274.91 56.42 274.91S76.22 280.02 95.53 280.02S116.1 273.33 134.64 273.33S154.2 279.79 173.74 279.79S193.88 285.69 212.85 285.69S232.87 284.47 251.95 284.47S271.89 276.48 291.06 276.48S311.38 279.59 330.17 279.59S350.44 274.48 369.27 274.48S389.74 283.92 408.38 283.92S428.41 275.94 447.48 275.94S467.98 275.25 486.59 275.25S506.24 283.1 525.7 283.1S545.75 279.15 564.8 279.15S584.85 273.77 603.91 273.77S624.4 272.66 643.01 272.66S663.56 276.61 682.12 276.61S701.87 282.75 721.23 282.75S741.72 283.48 760.33 283.48S780.44 280.48 799.44 280.48S819.64 278.79 838.54 278.79S858.36 282.56 877.65 282.56S897.85 279.91 916.75 279.91S937.42 281.6 955.86 281.6S975.62 275.16 994.97 275.16S1015.44 276.32 1034.07 276.32S1054.46 273.52 1073.18 273.52S1092.81 275.61 1112.28 275.61L1081 450 L-100 450 Z;M-100 282.1C-80.08 281.94 -79.92 282.29 -60.89 282.29S-41.03 274.37 -21.79 274.37S-1.28 279.89 17.32 279.89S37.09 275.26 56.42 275.26S77 276.73 95.53 276.73S116.2 283.11 134.64 283.11S154.5 281.25 173.74 281.25S193.65 280.87 212.85 280.87S233.17 284.44 251.95 284.44S271.92 277.06 291.06 277.06S311.71 278.73 330.17 278.73S350.71 278.19 369.27 278.19S389.38 282.1 408.38 282.1S427.94 276.98 447.48 276.98S467.56 279.32 486.59 279.32S507.22 275.94 525.7 275.94S546.22 274.7 564.8 274.7S585.01 276.06 603.91 276.06S624.19 279.61 643.01 279.61S663.65 279.88 682.12 279.88S702.12 285.57 721.23 285.57S741.18 282.43 760.33 282.43S780.57 284.81 799.44 284.81S819.77 280.36 838.54 280.36S858.53 282.38 877.65 282.38S897.91 277.47 916.75 277.47S937.33 277.93 955.86 277.93S975.7 278.68 994.97 278.68S1015.45 280.79 1034.07 280.79S1054.02 276.82 1073.18 276.82S1093.07 277.19 1112.28 277.19L1081 450 L-100 450 Z"></animate>
  <animateTransform attributeName="transform" type="translate" dur="9.375s" begin="-0.9375s" repeatCount="indefinite" values="0;10;0" calcMode="spline" keySplines="0.3 0 0.7 1;0.3 0 0.7 1"></animateTransform>
</path><path d="M-100 291.93C-78.87 291.91 -79.19 291.21 -59.83 291.21S-39.2 291.82 -19.66 291.82S1.25 293.4 20.51 293.4S40.85 287.32 60.68 287.32S81.12 291.11 100.85 291.11S121.2 292.56 141.02 292.56S161.94 289.05 181.19 289.05S202.08 286.83 221.36 286.83S242.36 291.45 261.53 291.45S281.9 283.54 301.7 283.54S321.82 295.88 341.87 295.88S362.09 286.41 382.04 286.41S403.22 287.16 422.21 287.16S443 298.96 462.38 298.96S482.56 292.84 502.55 292.84S523.24 289.63 542.72 289.63S563.46 291.87 582.89 291.87S603.01 289.51 623.06 289.51S643.7 292.5 663.23 292.5S684.33 284.52 703.4 284.52S723.94 298.57 743.57 298.57S763.77 293.75 783.74 293.75S804.86 292.19 823.91 292.19S844.83 293.05 864.08 293.05S884.64 295.46 904.25 295.46S925.24 290.92 944.42 290.92S965.01 292.05 984.59 292.05S1005.49 294.96 1024.76 294.96S1044.9 289.79 1064.93 289.79S1085.25 290.14 1105.1 290.14L1081 450 L-100 450 Z" fill="#88cfe3" stroke-width="0">
  <animate attributeName="d" dur="8.333333333333332s" repeatCount="indefinite" values="M-100 291.93C-78.87 291.91 -79.19 291.21 -59.83 291.21S-39.2 291.82 -19.66 291.82S1.25 293.4 20.51 293.4S40.85 287.32 60.68 287.32S81.12 291.11 100.85 291.11S121.2 292.56 141.02 292.56S161.94 289.05 181.19 289.05S202.08 286.83 221.36 286.83S242.36 291.45 261.53 291.45S281.9 283.54 301.7 283.54S321.82 295.88 341.87 295.88S362.09 286.41 382.04 286.41S403.22 287.16 422.21 287.16S443 298.96 462.38 298.96S482.56 292.84 502.55 292.84S523.24 289.63 542.72 289.63S563.46 291.87 582.89 291.87S603.01 289.51 623.06 289.51S643.7 292.5 663.23 292.5S684.33 284.52 703.4 284.52S723.94 298.57 743.57 298.57S763.77 293.75 783.74 293.75S804.86 292.19 823.91 292.19S844.83 293.05 864.08 293.05S884.64 295.46 904.25 295.46S925.24 290.92 944.42 290.92S965.01 292.05 984.59 292.05S1005.49 294.96 1024.76 294.96S1044.9 289.79 1064.93 289.79S1085.25 290.14 1105.1 290.14L1081 450 L-100 450 Z;M-100 293.89C-79.59 287.73 -79.67 290.79 -59.83 290.79S-39.74 299.19 -19.66 299.19S0.61 293.16 20.51 293.16S40.65 298.27 60.68 298.27S81.6 292.33 100.85 292.33S120.96 283.51 141.02 283.51S161.26 291.74 181.19 291.74S201.83 287.01 221.36 287.01S241.62 298.08 261.53 298.08S282.65 285.78 301.7 285.78S322.14 293.2 341.87 293.2S362.89 289.05 382.04 289.05S402.82 291.2 422.21 291.2S442.42 290.6 462.38 290.6S482.87 291.26 502.55 291.26S522.81 287.31 542.72 287.31S563.28 294.29 582.89 294.29S603.36 287.79 623.06 287.79S643.32 294.43 663.23 294.43S683.67 284.44 703.4 284.44S723.95 295.12 743.57 295.12S763.68 287.11 783.74 287.11S804.32 295.23 823.91 295.23S844.25 289.08 864.08 289.08S884.42 290.35 904.25 290.35S924.64 291.4 944.42 291.4S964.58 292.15 984.59 292.15S1005.56 290.04 1024.76 290.04S1045.02 289.6 1064.93 289.6S1085.56 290.1 1105.1 290.1L1081 450 L-100 450 Z;M-100 291.93C-78.87 291.91 -79.19 291.21 -59.83 291.21S-39.2 291.82 -19.66 291.82S1.25 293.4 20.51 293.4S40.85 287.32 60.68 287.32S81.12 291.11 100.85 291.11S121.2 292.56 141.02 292.56S161.94 289.05 181.19 289.05S202.08 286.83 221.36 286.83S242.36 291.45 261.53 291.45S281.9 283.54 301.7 283.54S321.82 295.88 341.87 295.88S362.09 286.41 382.04 286.41S403.22 287.16 422.21 287.16S443 298.96 462.38 298.96S482.56 292.84 502.55 292.84S523.24 289.63 542.72 289.63S563.46 291.87 582.89 291.87S603.01 289.51 623.06 289.51S643.7 292.5 663.23 292.5S684.33 284.52 703.4 284.52S723.94 298.57 743.57 298.57S763.77 293.75 783.74 293.75S804.86 292.19 823.91 292.19S844.83 293.05 864.08 293.05S884.64 295.46 904.25 295.46S925.24 290.92 944.42 290.92S965.01 292.05 984.59 292.05S1005.49 294.96 1024.76 294.96S1044.9 289.79 1064.93 289.79S1085.25 290.14 1105.1 290.14L1081 450 L-100 450 Z"></animate>
  <animateTransform attributeName="transform" type="translate" dur="8.333333333333332s" begin="-1.6666666666666665s" repeatCount="indefinite" values="0;10;0" calcMode="spline" keySplines="0.3 0 0.7 1;0.3 0 0.7 1"></animateTransform>
</path><path d="M-100 297.06C-79.34 298.68 -79.28 305.79 -58.71 305.79S-37.55 305.07 -17.41 305.07S4.1 307.87 23.88 307.87S45.58 295.4 65.17 295.4S86.53 301.62 106.47 301.62S128.19 297.61 147.76 297.61S168.81 302.65 189.06 302.65S209.94 305.75 230.35 305.75S251.78 302.23 271.64 302.23S293.13 296.74 312.94 296.74S333.9 301.97 354.23 301.97S374.99 305.82 395.52 305.82S416.18 311.83 436.82 311.83S457.67 297.25 478.11 297.25S499.59 308.02 519.41 308.02S540.34 305.21 560.7 305.21S582.3 306.95 601.99 306.95S622.96 303.4 643.29 303.4S664.45 306.36 684.58 306.36S705.65 305.54 725.87 305.54S747.34 312.16 767.17 312.16S788.16 304.5 808.46 304.5S829.4 311.03 849.76 311.03S870.61 305.22 891.05 305.22S912.57 311.68 932.34 311.68S953.21 298.46 973.64 298.46S995.4 309.25 1014.93 309.25S1036.15 302.84 1056.22 302.84S1076.88 304.46 1097.52 304.46L1081 450 L-100 450 Z" fill="#83c8df" stroke-width="0">
  <animate attributeName="d" dur="7.291666666666666s" repeatCount="indefinite" values="M-100 297.06C-79.34 298.68 -79.28 305.79 -58.71 305.79S-37.55 305.07 -17.41 305.07S4.1 307.87 23.88 307.87S45.58 295.4 65.17 295.4S86.53 301.62 106.47 301.62S128.19 297.61 147.76 297.61S168.81 302.65 189.06 302.65S209.94 305.75 230.35 305.75S251.78 302.23 271.64 302.23S293.13 296.74 312.94 296.74S333.9 301.97 354.23 301.97S374.99 305.82 395.52 305.82S416.18 311.83 436.82 311.83S457.67 297.25 478.11 297.25S499.59 308.02 519.41 308.02S540.34 305.21 560.7 305.21S582.3 306.95 601.99 306.95S622.96 303.4 643.29 303.4S664.45 306.36 684.58 306.36S705.65 305.54 725.87 305.54S747.34 312.16 767.17 312.16S788.16 304.5 808.46 304.5S829.4 311.03 849.76 311.03S870.61 305.22 891.05 305.22S912.57 311.68 932.34 311.68S953.21 298.46 973.64 298.46S995.4 309.25 1014.93 309.25S1036.15 302.84 1056.22 302.84S1076.88 304.46 1097.52 304.46L1081 450 L-100 450 Z;M-100 305C-79.02 296.21 -79.17 310.85 -58.71 310.85S-37.31 301.68 -17.41 301.68S3.29 302.7 23.88 302.7S44.77 299.34 65.17 299.34S86.29 309.93 106.47 309.93S127.68 295.52 147.76 295.52S168.5 302.36 189.06 302.36S210.25 298.13 230.35 298.13S251.76 295.92 271.64 295.92S292.5 301.91 312.94 301.91S334.05 302.38 354.23 302.38S375.6 295.08 395.52 295.08S416.79 300.73 436.82 300.73S457.6 304 478.11 304S499.66 309.92 519.41 309.92S540.42 305.14 560.7 305.14S582.47 306.37 601.99 306.37S623.31 312.2 643.29 312.2S664.14 309.7 684.58 309.7S705.82 299.6 725.87 299.6S747.57 303.63 767.17 303.63S788.93 304.05 808.46 304.05S829.81 301.66 849.76 301.66S870.52 298.68 891.05 298.68S912.2 304.3 932.34 304.3S953.64 295.44 973.64 295.44S995.29 311.22 1014.93 311.22S1035.91 298.33 1056.22 298.33S1077.94 312.58 1097.52 312.58L1081 450 L-100 450 Z;M-100 297.06C-79.34 298.68 -79.28 305.79 -58.71 305.79S-37.55 305.07 -17.41 305.07S4.1 307.87 23.88 307.87S45.58 295.4 65.17 295.4S86.53 301.62 106.47 301.62S128.19 297.61 147.76 297.61S168.81 302.65 189.06 302.65S209.94 305.75 230.35 305.75S251.78 302.23 271.64 302.23S293.13 296.74 312.94 296.74S333.9 301.97 354.23 301.97S374.99 305.82 395.52 305.82S416.18 311.83 436.82 311.83S457.67 297.25 478.11 297.25S499.59 308.02 519.41 308.02S540.34 305.21 560.7 305.21S582.3 306.95 601.99 306.95S622.96 303.4 643.29 303.4S664.45 306.36 684.58 306.36S705.65 305.54 725.87 305.54S747.34 312.16 767.17 312.16S788.16 304.5 808.46 304.5S829.4 311.03 849.76 311.03S870.61 305.22 891.05 305.22S912.57 311.68 932.34 311.68S953.21 298.46 973.64 298.46S995.4 309.25 1014.93 309.25S1036.15 302.84 1056.22 302.84S1076.88 304.46 1097.52 304.46L1081 450 L-100 450 Z"></animate>
  <animateTransform attributeName="transform" type="translate" dur="7.291666666666666s" begin="-2.1875s" repeatCount="indefinite" values="0;10;0" calcMode="spline" keySplines="0.3 0 0.7 1;0.3 0 0.7 1"></animateTransform>
</path><path d="M-100 310.43C-78.17 307 -77.73 321.13 -57.52 321.13S-36.27 311.93 -15.04 311.93S6.47 316.41 27.45 316.41S49.78 313.39 69.93 313.39S92.15 315.93 112.41 315.93S134.42 308.25 154.89 308.25S176.41 322.39 197.37 322.39S218.96 306.4 239.86 306.4S261.44 326.09 282.34 326.09S304.59 315.39 324.82 315.39S347.1 311.91 367.3 311.91S388.69 306.52 409.78 306.52S431.84 316.18 452.27 316.18S473.73 308.68 494.75 308.68S516.77 319.2 537.23 319.2S559.29 315.58 579.71 315.58S601.58 306.1 622.19 306.1S644.2 314.03 664.68 314.03S686.76 326.22 707.16 326.22S729.21 315.32 749.64 315.32S771.22 318.82 792.12 318.82S813.84 317.16 834.6 317.16S856.12 316.56 877.09 316.56S899.08 317.85 919.57 317.85S941.26 314.42 962.05 314.42S984.07 311.34 1004.53 311.34S1026.62 321.64 1047.01 321.64S1069.26 308.62 1089.5 308.62L1081 450 L-100 450 Z" fill="#7ec2dc" stroke-width="0">
  <animate attributeName="d" dur="6.249999999999999s" repeatCount="indefinite" values="M-100 310.43C-78.17 307 -77.73 321.13 -57.52 321.13S-36.27 311.93 -15.04 311.93S6.47 316.41 27.45 316.41S49.78 313.39 69.93 313.39S92.15 315.93 112.41 315.93S134.42 308.25 154.89 308.25S176.41 322.39 197.37 322.39S218.96 306.4 239.86 306.4S261.44 326.09 282.34 326.09S304.59 315.39 324.82 315.39S347.1 311.91 367.3 311.91S388.69 306.52 409.78 306.52S431.84 316.18 452.27 316.18S473.73 308.68 494.75 308.68S516.77 319.2 537.23 319.2S559.29 315.58 579.71 315.58S601.58 306.1 622.19 306.1S644.2 314.03 664.68 314.03S686.76 326.22 707.16 326.22S729.21 315.32 749.64 315.32S771.22 318.82 792.12 318.82S813.84 317.16 834.6 317.16S856.12 316.56 877.09 316.56S899.08 317.85 919.57 317.85S941.26 314.42 962.05 314.42S984.07 311.34 1004.53 311.34S1026.62 321.64 1047.01 321.64S1069.26 308.62 1089.5 308.62L1081 450 L-100 450 Z;M-100 315.44C-77.67 314.26 -78 318.64 -57.52 318.64S-35.91 315.78 -15.04 315.78S7.21 317.37 27.45 317.37S48.76 309.26 69.93 309.26S92.11 325.31 112.41 325.31S134.4 312.77 154.89 312.77S176.37 317.34 197.37 317.34S218.95 313.09 239.86 313.09S262.17 322.87 282.34 322.87S304.08 311.53 324.82 311.53S347.18 325.76 367.3 325.76S389.33 313.99 409.78 313.99S431.23 321.98 452.27 321.98S473.81 308.38 494.75 308.38S516.86 317.57 537.23 317.57S558.53 314.29 579.71 314.29S601.05 321.34 622.19 321.34S643.57 309.58 664.68 309.58S686.75 325.8 707.16 325.8S728.98 306.09 749.64 306.09S771.88 318.27 792.12 318.27S814.28 311.67 834.6 311.67S856.89 317.18 877.09 317.18S898.92 309.25 919.57 309.25S941.86 323.06 962.05 323.06S983.29 312.87 1004.53 312.87S1025.94 325.97 1047.01 325.97S1068.57 324.22 1089.5 324.22L1081 450 L-100 450 Z;M-100 310.43C-78.17 307 -77.73 321.13 -57.52 321.13S-36.27 311.93 -15.04 311.93S6.47 316.41 27.45 316.41S49.78 313.39 69.93 313.39S92.15 315.93 112.41 315.93S134.42 308.25 154.89 308.25S176.41 322.39 197.37 322.39S218.96 306.4 239.86 306.4S261.44 326.09 282.34 326.09S304.59 315.39 324.82 315.39S347.1 311.91 367.3 311.91S388.69 306.52 409.78 306.52S431.84 316.18 452.27 316.18S473.73 308.68 494.75 308.68S516.77 319.2 537.23 319.2S559.29 315.58 579.71 315.58S601.58 306.1 622.19 306.1S644.2 314.03 664.68 314.03S686.76 326.22 707.16 326.22S729.21 315.32 749.64 315.32S771.22 318.82 792.12 318.82S813.84 317.16 834.6 317.16S856.12 316.56 877.09 316.56S899.08 317.85 919.57 317.85S941.26 314.42 962.05 314.42S984.07 311.34 1004.53 311.34S1026.62 321.64 1047.01 321.64S1069.26 308.62 1089.5 308.62L1081 450 L-100 450 Z"></animate>
  <animateTransform attributeName="transform" type="translate" dur="6.249999999999999s" begin="-2.4999999999999996s" repeatCount="indefinite" values="0;10;0" calcMode="spline" keySplines="0.3 0 0.7 1;0.3 0 0.7 1"></animateTransform>
</path><path d="M-100 324.87C-77.1 317.3 -78 318.83 -56.26 318.83S-33.74 335.63 -12.52 335.63S9.45 333.24 31.22 333.24S53.42 321.98 74.96 321.98S97.06 317.94 118.7 317.94S140.93 326.89 162.44 326.89S184.69 332.47 206.19 332.47S229.11 321.58 249.93 321.58S272.54 338.66 293.67 338.66S315.71 326.14 337.41 326.14S360.15 333.93 381.15 333.93S403.7 326.88 424.89 326.88S446.79 339.54 468.63 339.54S490.93 321.41 512.37 321.41S534.73 337.24 556.11 337.24S578.96 324.32 599.85 324.32S622.32 331.19 643.59 331.19S665.98 322.95 687.33 322.95S709.36 330.23 731.07 330.23S753.9 333.95 774.81 333.95S797.37 339.32 818.56 339.32S841.51 320.43 862.3 320.43S884.7 329.37 906.04 329.37S928.62 321.44 949.78 321.44S971.83 331.69 993.52 331.69S1016.24 324.54 1037.26 324.54S1060.2 339.58 1081 339.58S1103.49 321.53 1124.74 321.53L1081 450 L-100 450 Z" fill="#79bcd8" stroke-width="0">
  <animate attributeName="d" dur="5.208333333333333s" repeatCount="indefinite" values="M-100 324.87C-77.1 317.3 -78 318.83 -56.26 318.83S-33.74 335.63 -12.52 335.63S9.45 333.24 31.22 333.24S53.42 321.98 74.96 321.98S97.06 317.94 118.7 317.94S140.93 326.89 162.44 326.89S184.69 332.47 206.19 332.47S229.11 321.58 249.93 321.58S272.54 338.66 293.67 338.66S315.71 326.14 337.41 326.14S360.15 333.93 381.15 333.93S403.7 326.88 424.89 326.88S446.79 339.54 468.63 339.54S490.93 321.41 512.37 321.41S534.73 337.24 556.11 337.24S578.96 324.32 599.85 324.32S622.32 331.19 643.59 331.19S665.98 322.95 687.33 322.95S709.36 330.23 731.07 330.23S753.9 333.95 774.81 333.95S797.37 339.32 818.56 339.32S841.51 320.43 862.3 320.43S884.7 329.37 906.04 329.37S928.62 321.44 949.78 321.44S971.83 331.69 993.52 331.69S1016.24 324.54 1037.26 324.54S1060.2 339.58 1081 339.58S1103.49 321.53 1124.74 321.53L1081 450 L-100 450 Z;M-100 323.14C-77.84 321.2 -78 339.28 -56.26 339.28S-34.36 318.51 -12.52 318.51S9.84 336.3 31.22 336.3S53.52 317.27 74.96 317.27S97.63 336.43 118.7 336.43S141.36 318.29 162.44 318.29S184.76 333.51 206.19 333.51S228.4 328.03 249.93 328.03S272.37 317.62 293.67 317.62S316.04 326.78 337.41 326.78S360.12 331.96 381.15 331.96S403.39 321.53 424.89 321.53S446.8 339.37 468.63 339.37S490.9 319.31 512.37 319.31S534.29 339.74 556.11 339.74S578.05 322.62 599.85 322.62S622.53 331.83 643.59 331.83S666.44 319.05 687.33 319.05S709.41 328.69 731.07 328.69S753.33 318.86 774.81 318.86S797.07 332.07 818.56 332.07S841.51 321.93 862.3 321.93S884.89 336.16 906.04 336.16S928.98 327.58 949.78 327.58S972.1 336.98 993.52 336.98S1016.14 326.63 1037.26 326.63S1059.29 319.62 1081 319.62S1103.06 325.07 1124.74 325.07L1081 450 L-100 450 Z;M-100 324.87C-77.1 317.3 -78 318.83 -56.26 318.83S-33.74 335.63 -12.52 335.63S9.45 333.24 31.22 333.24S53.42 321.98 74.96 321.98S97.06 317.94 118.7 317.94S140.93 326.89 162.44 326.89S184.69 332.47 206.19 332.47S229.11 321.58 249.93 321.58S272.54 338.66 293.67 338.66S315.71 326.14 337.41 326.14S360.15 333.93 381.15 333.93S403.7 326.88 424.89 326.88S446.79 339.54 468.63 339.54S490.93 321.41 512.37 321.41S534.73 337.24 556.11 337.24S578.96 324.32 599.85 324.32S622.32 331.19 643.59 331.19S665.98 322.95 687.33 322.95S709.36 330.23 731.07 330.23S753.9 333.95 774.81 333.95S797.37 339.32 818.56 339.32S841.51 320.43 862.3 320.43S884.7 329.37 906.04 329.37S928.62 321.44 949.78 321.44S971.83 331.69 993.52 331.69S1016.24 324.54 1037.26 324.54S1060.2 339.58 1081 339.58S1103.49 321.53 1124.74 321.53L1081 450 L-100 450 Z"></animate>
  <animateTransform attributeName="transform" type="translate" dur="5.208333333333333s" begin="-2.6041666666666665s" repeatCount="indefinite" values="0;10;0" calcMode="spline" keySplines="0.3 0 0.7 1;0.3 0 0.7 1"></animateTransform>
</path><path d="M-100 345.56C-76.56 346.46 -77.15 346.7 -54.92 346.7S-31.64 347.69 -9.85 347.69S13 344.66 35.23 344.66S58.22 334.78 80.31 334.78S103.63 351.16 125.38 351.16S148.8 332.27 170.46 332.27S193.33 342.65 215.53 342.65S238.36 336.23 260.61 336.23S284.02 347.02 305.69 347.02S328.76 336.88 350.76 336.88S374.27 349.47 395.84 349.47S418.6 329.46 440.92 329.46S464.47 345.28 485.99 345.28S509.42 330 531.07 330S554.23 330.01 576.15 330.01S599.62 335.29 621.22 335.29S644.33 348.58 666.3 348.58S689.3 329.21 711.37 329.21S734.67 349.14 756.45 349.14S779.81 335.1 801.53 335.1S824.54 350.57 846.6 350.57S869.24 334.74 891.68 334.74S914.3 351.92 936.76 351.92S960.19 335.53 981.83 335.53S1005.26 346.42 1026.91 346.42S1049.56 336.31 1071.98 336.31S1094.72 351.6 1117.06 351.6L1081 450 L-100 450 Z" fill="#75b5d5" stroke-width="0">
  <animate attributeName="d" dur="4.166666666666666s" repeatCount="indefinite" values="M-100 345.56C-76.56 346.46 -77.15 346.7 -54.92 346.7S-31.64 347.69 -9.85 347.69S13 344.66 35.23 344.66S58.22 334.78 80.31 334.78S103.63 351.16 125.38 351.16S148.8 332.27 170.46 332.27S193.33 342.65 215.53 342.65S238.36 336.23 260.61 336.23S284.02 347.02 305.69 347.02S328.76 336.88 350.76 336.88S374.27 349.47 395.84 349.47S418.6 329.46 440.92 329.46S464.47 345.28 485.99 345.28S509.42 330 531.07 330S554.23 330.01 576.15 330.01S599.62 335.29 621.22 335.29S644.33 348.58 666.3 348.58S689.3 329.21 711.37 329.21S734.67 349.14 756.45 349.14S779.81 335.1 801.53 335.1S824.54 350.57 846.6 350.57S869.24 334.74 891.68 334.74S914.3 351.92 936.76 351.92S960.19 335.53 981.83 335.53S1005.26 346.42 1026.91 346.42S1049.56 336.31 1071.98 336.31S1094.72 351.6 1117.06 351.6L1081 450 L-100 450 Z;M-100 333.07C-77.18 331.61 -76.52 352.31 -54.92 352.31S-31.41 336.91 -9.85 336.91S12.97 350.1 35.23 350.1S58.53 338.89 80.31 338.89S103.05 343.34 125.38 343.34S148.25 331.55 170.46 331.55S193.94 349.87 215.53 349.87S238.18 335.5 260.61 335.5S283.47 347.27 305.69 347.27S328.79 337.14 350.76 337.14S374.01 347.67 395.84 347.67S418.97 337.9 440.92 337.9S463.51 331.51 485.99 331.51S509.5 331.62 531.07 331.62S554.71 344.22 576.15 344.22S599.32 334.27 621.22 334.27S644.36 347.6 666.3 347.6S689.13 331.17 711.37 331.17S734.7 350.38 756.45 350.38S779.82 334.77 801.53 334.77S824.92 345.91 846.6 345.91S869.66 339.62 891.68 339.62S915.14 349.84 936.76 349.84S959.89 331.16 981.83 331.16S1004.6 343.39 1026.91 343.39S1050.31 338.42 1071.98 338.42S1095.27 352.17 1117.06 352.17L1081 450 L-100 450 Z;M-100 345.56C-76.56 346.46 -77.15 346.7 -54.92 346.7S-31.64 347.69 -9.85 347.69S13 344.66 35.23 344.66S58.22 334.78 80.31 334.78S103.63 351.16 125.38 351.16S148.8 332.27 170.46 332.27S193.33 342.65 215.53 342.65S238.36 336.23 260.61 336.23S284.02 347.02 305.69 347.02S328.76 336.88 350.76 336.88S374.27 349.47 395.84 349.47S418.6 329.46 440.92 329.46S464.47 345.28 485.99 345.28S509.42 330 531.07 330S554.23 330.01 576.15 330.01S599.62 335.29 621.22 335.29S644.33 348.58 666.3 348.58S689.3 329.21 711.37 329.21S734.67 349.14 756.45 349.14S779.81 335.1 801.53 335.1S824.54 350.57 846.6 350.57S869.24 334.74 891.68 334.74S914.3 351.92 936.76 351.92S960.19 335.53 981.83 335.53S1005.26 346.42 1026.91 346.42S1049.56 336.31 1071.98 336.31S1094.72 351.6 1117.06 351.6L1081 450 L-100 450 Z"></animate>
  <animateTransform attributeName="transform" type="translate" dur="4.166666666666666s" begin="-2.4999999999999996s" repeatCount="indefinite" values="0;10;0" calcMode="spline" keySplines="0.3 0 0.7 1;0.3 0 0.7 1"></animateTransform>
</path><path d="M-100 342.87C-76.51 342.3 -76.5 360.04 -53.5 360.04S-29.5 348.78 -7.01 348.78S16.45 356.91 39.49 356.91S63.71 362.48 85.98 362.48S109.72 358.85 132.48 358.85S156.05 342.55 178.98 342.55S203.02 360.98 225.47 360.98S249.19 342.33 271.97 342.33S295.83 347.59 318.46 347.59S342 344.34 364.96 344.34S388.3 361.12 411.46 361.12S435.77 349.47 457.95 349.47S482.13 362.15 504.45 362.15S527.92 342.25 550.94 342.25S575.22 361.86 597.44 361.86S621.37 347.59 643.94 347.59S667.33 357.75 690.43 357.75S714.43 346.6 736.93 346.6S761.05 342.98 783.43 342.98S806.78 350.62 829.92 350.62S853.27 364.87 876.42 364.87S899.72 346.45 922.91 346.45S947.24 360.92 969.41 360.92S993.39 346.39 1015.91 346.39S1040.1 358.87 1062.4 358.87S1085.75 341.11 1108.9 341.11L1081 450 L-100 450 Z" fill="#71afd1" stroke-width="0">
  <animate attributeName="d" dur="3.1249999999999996s" repeatCount="indefinite" values="M-100 342.87C-76.51 342.3 -76.5 360.04 -53.5 360.04S-29.5 348.78 -7.01 348.78S16.45 356.91 39.49 356.91S63.71 362.48 85.98 362.48S109.72 358.85 132.48 358.85S156.05 342.55 178.98 342.55S203.02 360.98 225.47 360.98S249.19 342.33 271.97 342.33S295.83 347.59 318.46 347.59S342 344.34 364.96 344.34S388.3 361.12 411.46 361.12S435.77 349.47 457.95 349.47S482.13 362.15 504.45 362.15S527.92 342.25 550.94 342.25S575.22 361.86 597.44 361.86S621.37 347.59 643.94 347.59S667.33 357.75 690.43 357.75S714.43 346.6 736.93 346.6S761.05 342.98 783.43 342.98S806.78 350.62 829.92 350.62S853.27 364.87 876.42 364.87S899.72 346.45 922.91 346.45S947.24 360.92 969.41 360.92S993.39 346.39 1015.91 346.39S1040.1 358.87 1062.4 358.87S1085.75 341.11 1108.9 341.11L1081 450 L-100 450 Z;M-100 347.41C-76.25 344.28 -76.4 361.84 -53.5 361.84S-30.1 344.7 -7.01 344.7S16.66 361.19 39.49 361.19S63.33 343.23 85.98 343.23S110.19 363.9 132.48 363.9S155.78 341.35 178.98 341.35S202.6 360.07 225.47 360.07S249.69 344.07 271.97 344.07S295.72 361.62 318.46 361.62S342.11 343.73 364.96 343.73S388.77 363.18 411.46 363.18S434.78 343.76 457.95 343.76S482.11 350.32 504.45 350.32S528.02 350.38 550.94 350.38S574.76 360.13 597.44 360.13S621.25 344.99 643.94 344.99S667.29 348.92 690.43 348.92S714.16 341.6 736.93 341.6S760.26 364.87 783.43 364.87S806.73 340.15 829.92 340.15S853.69 357.9 876.42 357.9S900.53 364.81 922.91 364.81S946.5 365.09 969.41 365.09S993.34 344.07 1015.91 344.07S1039.32 363.05 1062.4 363.05S1085.71 359.86 1108.9 359.86L1081 450 L-100 450 Z;M-100 342.87C-76.51 342.3 -76.5 360.04 -53.5 360.04S-29.5 348.78 -7.01 348.78S16.45 356.91 39.49 356.91S63.71 362.48 85.98 362.48S109.72 358.85 132.48 358.85S156.05 342.55 178.98 342.55S203.02 360.98 225.47 360.98S249.19 342.33 271.97 342.33S295.83 347.59 318.46 347.59S342 344.34 364.96 344.34S388.3 361.12 411.46 361.12S435.77 349.47 457.95 349.47S482.13 362.15 504.45 362.15S527.92 342.25 550.94 342.25S575.22 361.86 597.44 361.86S621.37 347.59 643.94 347.59S667.33 357.75 690.43 357.75S714.43 346.6 736.93 346.6S761.05 342.98 783.43 342.98S806.78 350.62 829.92 350.62S853.27 364.87 876.42 364.87S899.72 346.45 922.91 346.45S947.24 360.92 969.41 360.92S993.39 346.39 1015.91 346.39S1040.1 358.87 1062.4 358.87S1085.75 341.11 1108.9 341.11L1081 450 L-100 450 Z"></animate>
  <animateTransform attributeName="transform" type="translate" dur="3.1249999999999996s" begin="-2.1874999999999996s" repeatCount="indefinite" values="0;10;0" calcMode="spline" keySplines="0.3 0 0.7 1;0.3 0 0.7 1"></animateTransform>
</path><path d="M-100 372.18C-75.72 373.11 -75.41 379.4 -51.99 379.4S-27.93 362.11 -3.98 362.11S20.52 357.51 44.02 357.51S69 352.59 92.03 352.59S116.13 378.18 140.04 378.18S164.98 354.63 188.05 354.63S212.29 357.21 236.06 357.21S260.1 355.69 284.07 355.69S308.91 378.59 332.07 378.59S356.12 357.44 380.08 357.44S404.31 371.39 428.09 371.39S453.15 352.43 476.1 352.43S500.38 369.74 524.11 369.74S548.19 373.21 572.11 373.21S596.84 377.44 620.12 377.44S644.83 353.16 668.13 353.16S693.1 379.69 716.14 379.69S740.99 371.15 764.15 371.15S788.96 371.12 812.15 371.12S837 360.11 860.16 360.11S884.82 378.16 908.17 378.16S933.16 360.44 956.18 360.44S980.44 375.99 1004.19 375.99S1029.3 351.93 1052.2 351.93S1076.71 379.97 1100.2 379.97L1081 450 L-100 450 Z" fill="#6ea9cd" stroke-width="0">
  <animate attributeName="d" dur="2.083333333333333s" repeatCount="indefinite" values="M-100 372.18C-75.72 373.11 -75.41 379.4 -51.99 379.4S-27.93 362.11 -3.98 362.11S20.52 357.51 44.02 357.51S69 352.59 92.03 352.59S116.13 378.18 140.04 378.18S164.98 354.63 188.05 354.63S212.29 357.21 236.06 357.21S260.1 355.69 284.07 355.69S308.91 378.59 332.07 378.59S356.12 357.44 380.08 357.44S404.31 371.39 428.09 371.39S453.15 352.43 476.1 352.43S500.38 369.74 524.11 369.74S548.19 373.21 572.11 373.21S596.84 377.44 620.12 377.44S644.83 353.16 668.13 353.16S693.1 379.69 716.14 379.69S740.99 371.15 764.15 371.15S788.96 371.12 812.15 371.12S837 360.11 860.16 360.11S884.82 378.16 908.17 378.16S933.16 360.44 956.18 360.44S980.44 375.99 1004.19 375.99S1029.3 351.93 1052.2 351.93S1076.71 379.97 1100.2 379.97L1081 450 L-100 450 Z;M-100 377.74C-75.7 374.05 -74.99 370.02 -51.99 370.02S-27.72 354.73 -3.98 354.73S21.09 370.99 44.02 370.99S68.52 360.61 92.03 360.61S117.12 373.27 140.04 373.27S164.07 359.61 188.05 359.61S213 371.77 236.06 371.77S260.23 356.25 284.07 356.25S309.19 369.02 332.07 369.02S356.5 354.94 380.08 354.94S404.35 369.16 428.09 369.16S452.12 360.51 476.1 360.51S501.18 379.35 524.11 379.35S548.14 375.38 572.11 375.38S596.53 352.03 620.12 352.03S644.82 380.17 668.13 380.17S692.75 359.72 716.14 359.72S740.21 355.5 764.15 355.5S788.61 375.97 812.15 375.97S836.25 361.52 860.16 361.52S884.36 374.64 908.17 374.64S932.74 357.67 956.18 357.67S981.2 372.63 1004.19 372.63S1028.26 370.82 1052.2 370.82S1076.61 375.54 1100.2 375.54L1081 450 L-100 450 Z;M-100 372.18C-75.72 373.11 -75.41 379.4 -51.99 379.4S-27.93 362.11 -3.98 362.11S20.52 357.51 44.02 357.51S69 352.59 92.03 352.59S116.13 378.18 140.04 378.18S164.98 354.63 188.05 354.63S212.29 357.21 236.06 357.21S260.1 355.69 284.07 355.69S308.91 378.59 332.07 378.59S356.12 357.44 380.08 357.44S404.31 371.39 428.09 371.39S453.15 352.43 476.1 352.43S500.38 369.74 524.11 369.74S548.19 373.21 572.11 373.21S596.84 377.44 620.12 377.44S644.83 353.16 668.13 353.16S693.1 379.69 716.14 379.69S740.99 371.15 764.15 371.15S788.96 371.12 812.15 371.12S837 360.11 860.16 360.11S884.82 378.16 908.17 378.16S933.16 360.44 956.18 360.44S980.44 375.99 1004.19 375.99S1029.3 351.93 1052.2 351.93S1076.71 379.97 1100.2 379.97L1081 450 L-100 450 Z"></animate>
  <animateTransform attributeName="transform" type="translate" dur="2.083333333333333s" begin="-1.6666666666666665s" repeatCount="indefinite" values="0;10;0" calcMode="spline" keySplines="0.3 0 0.7 1;0.3 0 0.7 1"></animateTransform>
</path><path d="M-100 365.05C-75.12 364.4 -74.36 386.75 -50.38 386.75S-24.53 367.43 -0.76 367.43S24.74 389.34 48.87 389.34S74.15 368.41 98.49 368.41S123.94 391.33 148.11 391.33S173.39 366.82 197.73 366.82S223.62 391.08 247.35 391.08S272.51 386.63 296.97 386.63S322.49 385.53 346.6 385.53S372.38 366.64 396.22 366.64S421.72 389.53 445.84 389.53S471.02 367.83 495.46 367.83S521.06 388.79 545.08 388.79S570.78 373.48 594.71 373.48S619.53 393.47 644.33 393.47S669.94 362.34 693.95 362.34S718.98 390.89 743.57 390.89S768.48 371.85 793.19 371.85S818.76 389.14 842.82 389.14S868.15 366.67 892.44 366.67S918.14 385.51 942.06 385.51S967.39 373.3 991.68 373.3S1017.09 392.18 1041.3 392.18S1067.02 372.72 1090.92 372.72L1081 450 L-100 450 Z" fill="#6ba2c9" stroke-width="0">
  <animate attributeName="d" dur="1.0416666666666665s" repeatCount="indefinite" values="M-100 365.05C-75.12 364.4 -74.36 386.75 -50.38 386.75S-24.53 367.43 -0.76 367.43S24.74 389.34 48.87 389.34S74.15 368.41 98.49 368.41S123.94 391.33 148.11 391.33S173.39 366.82 197.73 366.82S223.62 391.08 247.35 391.08S272.51 386.63 296.97 386.63S322.49 385.53 346.6 385.53S372.38 366.64 396.22 366.64S421.72 389.53 445.84 389.53S471.02 367.83 495.46 367.83S521.06 388.79 545.08 388.79S570.78 373.48 594.71 373.48S619.53 393.47 644.33 393.47S669.94 362.34 693.95 362.34S718.98 390.89 743.57 390.89S768.48 371.85 793.19 371.85S818.76 389.14 842.82 389.14S868.15 366.67 892.44 366.67S918.14 385.51 942.06 385.51S967.39 373.3 991.68 373.3S1017.09 392.18 1041.3 392.18S1067.02 372.72 1090.92 372.72L1081 450 L-100 450 Z;M-100 367.43C-75.05 370.45 -74.79 387.54 -50.38 387.54S-24.45 373 -0.76 373S24.21 390.46 48.87 390.46S74.06 365.36 98.49 365.36S123.36 383.02 148.11 383.02S174.04 370.41 197.73 370.41S222.69 388.99 247.35 388.99S272.99 388.8 296.97 388.8S322.24 386.55 346.6 386.55S371.7 367.15 396.22 367.15S421.17 393.47 445.84 393.47S470.93 372.29 495.46 372.29S521.05 369.33 545.08 369.33S570.73 365.97 594.71 365.97S620.19 385.52 644.33 385.52S670.1 372.11 693.95 372.11S719.47 382.8 743.57 382.8S769.39 368.91 793.19 368.91S818.48 364.59 842.82 364.59S868.23 371.15 892.44 371.15S917.95 387.33 942.06 387.33S967.02 368.44 991.68 368.44S1017.25 383.79 1041.3 383.79S1066.4 368.97 1090.92 368.97L1081 450 L-100 450 Z;M-100 365.05C-75.12 364.4 -74.36 386.75 -50.38 386.75S-24.53 367.43 -0.76 367.43S24.74 389.34 48.87 389.34S74.15 368.41 98.49 368.41S123.94 391.33 148.11 391.33S173.39 366.82 197.73 366.82S223.62 391.08 247.35 391.08S272.51 386.63 296.97 386.63S322.49 385.53 346.6 385.53S372.38 366.64 396.22 366.64S421.72 389.53 445.84 389.53S471.02 367.83 495.46 367.83S521.06 388.79 545.08 388.79S570.78 373.48 594.71 373.48S619.53 393.47 644.33 393.47S669.94 362.34 693.95 362.34S718.98 390.89 743.57 390.89S768.48 371.85 793.19 371.85S818.76 389.14 842.82 389.14S868.15 366.67 892.44 366.67S918.14 385.51 942.06 385.51S967.39 373.3 991.68 373.3S1017.09 392.18 1041.3 392.18S1067.02 372.72 1090.92 372.72L1081 450 L-100 450 Z"></animate>
  <animateTransform attributeName="transform" type="translate" dur="1.0416666666666665s" begin="-0.9374999999999998s" repeatCount="indefinite" values="0;10;0" calcMode="spline" keySplines="0.3 0 0.7 1;0.3 0 0.7 1"></animateTransform>
</path></g>
</svg>