<svg id="visual" viewBox="0 0 900 600" width="900" height="600" xmlns="http://www.w3.org/2000/svg" xmlns:xlink="http://www.w3.org/1999/xlink" version="1.1"><path d="M0 472L11.5 472.7C23 473.3 46 474.7 69 477.7C92 480.7 115 485.3 138.2 483.2C161.3 481 184.7 472 207.8 470.8C231 469.7 254 476.3 277 477.3C300 478.3 323 473.7 346 475.2C369 476.7 392 484.3 415.2 485.7C438.3 487 461.7 482 484.8 483.3C508 484.7 531 492.3 554 490.2C577 488 600 476 623 471.7C646 467.3 669 470.7 692.2 472C715.3 473.3 738.7 472.7 761.8 475.5C785 478.3 808 484.7 831 483.3C854 482 877 473 888.5 468.5L900 464L900 601L888.5 601C877 601 854 601 831 601C808 601 785 601 761.8 601C738.7 601 715.3 601 692.2 601C669 601 646 601 623 601C600 601 577 601 554 601C531 601 508 601 484.8 601C461.7 601 438.3 601 415.2 601C392 601 369 601 346 601C323 601 300 601 277 601C254 601 231 601 207.8 601C184.7 601 161.3 601 138.2 601C115 601 92 601 69 601C46 601 23 601 11.5 601L0 601Z" fill="#0066FF" stroke-linecap="round" stroke-linejoin="miter"></path></svg>